# xmcd
#
# Track frame offsets:
#	150
#	15682
#	28597
#	43185
#	59652
#
# Disc length: 992 seconds
#
# Revision: 0
# Processed by: cddbd v1.5.2PL0 Copyright (c) Steve Scherf et al.
# Submitted via: audiograbber 1.83.01
#
DISCID=3f03de05
DTITLE=Western Railroad - Für Euch unterwegs
DYEAR=1995
DGENRE=country
TTITLE0=Louisiana
TTITLE1=Western Railroad
TTITLE2=Daddy
TTITLE3=Banjo Boy
TTITLE4=Flugzeug nach Nashville
EXTD=Diese Maxi-CD ist eine Vorstellung der neuen eigenen musikalischen Richtun
EXTD=g, die meine Band WESTERN RAILROAD zur Second Time seit Juli '94 eingeschl
EXTD=agen hat.\nDie fünf neuen Songs sind ein Vorgeschmack auf die vollständige
EXTD=CD die hoffentlich bald im Mekka der Countrymusik, in Nashville-Tennessee
EXTD=produziert wird.\n\nDiete Bernhardt, September 95
EXTT0=
EXTT1=
EXTT2=
EXTT3=
EXTT4=
PLAYORDER=
